<svg xmlns="http://www.w3.org/2000/svg" version="1.1" xmlns:xlink="http://www.w3.org/1999/xlink" xmlns:svgjs="http://svgjs.dev/svgjs" width="2000" height="2250" viewBox="0 0 2000 2250"><g transform="matrix(1,0,0,1,3.410605131648481e-13,0)"><svg viewBox="0 0 320 360" data-background-color="#ffffff" preserveAspectRatio="xMidYMid meet" height="2250" width="2000" xmlns="http://www.w3.org/2000/svg" xmlns:xlink="http://www.w3.org/1999/xlink"><g id="tight-bounds" transform="matrix(1,0,0,1,0,0)"><svg viewBox="0 0 320 360" height="360" width="320"><g><svg></svg></g><g><svg viewBox="0 0 320 360" height="360" width="320"><g><path d="M20.961 227.22l3.726 4.658-1.863-6.056c-0.466-2.795-3.726 0.466-1.863 1.398M25.153 224.425c1.397 2.329 2.795 4.658 2.795 6.987 0 3.261 2.795 4.658 5.123 5.589-3.261-3.726-5.124-13.974-7.918-12.576M204.017 26.929c7.918 0 15.371-0.932 23.756 0.931 20.495 5.124 37.729 15.371 49.374 29.811l32.606 52.169c1.397 13.042 4.192 27.482 3.726 43.319 3.261 0 2.795-4.658 6.521-5.59-3.726 9.316-5.59 20.961-6.521 34.469-2.329-7.453 0-18.632 0.466-24.687-3.261 5.124-5.124 1.397-5.124-0.932 0.466-3.726-1.397-3.261-2.795-4.658-5.124-4.658-8.384-9.782-12.11-17.7 2.329-6.055 2.795-14.905-4.658-19.563-2.329-1.397-5.124-3.726-6.521-7.453-1.863-5.124-5.124-11.179-4.193-19.097 0.466-2.329-6.987 5.124-11.179 1.863-18.166-12.576-36.332-27.016-58.224-39.127-11.645 0-20.029-4.192-24.221-9.316-3.726-4.658-0.932-10.713 4.658-11.179 3.261 0 6.987-0.932 9.782 0.932 0.466-1.863 2.329-4.192 4.657-4.192M157.904 16.215l0.932 0.466c4.658 0.932 6.987 7.453 12.11 5.124 0 3.261 0.466 6.521-0.466 8.85-1.397 3.726-5.59 3.726-8.85 3.726-31.208-1.863-49.374 11.179-68.471 22.358-5.124 3.261-10.713 5.59-14.906 9.782-20.029 18.632-41.921 35.866-47.045 70.335l-4.192 38.195c-0.466 4.192-5.124 8.384-4.192 13.508l3.26 22.824c-3.261-3.261-5.124 0.932-4.192 2.795 0.466 1.397 2.329 6.055 5.124 1.863 3.726 6.987 7.453 20.495 12.576 26.55 15.837 18.632 36.332 35.4 53.101 52.169 4.192-0.932 7.453-0.932 8.384-3.727 1.397 2.795-1.397 5.59-3.726 6.056 7.453 4.658 15.837 8.85 27.016 9.781 14.44 0.932 27.948 3.261 40.524 6.522 6.521-1.863 13.042-2.795 20.029-3.261 2.329 0 3.726-3.726 6.521-4.658l0.466-4.658c2.795 4.192 2.329-1.397 0.466-4.192 3.261 2.795 4.192 5.124 5.589 6.987 0-1.397 3.726-6.521 3.727-0.466l0.931-6.055c1.397-0.932 1.863 5.124 3.261 0.931 1.397-4.192 4.192-0.932 6.987-2.329-0.932 1.863-0.466 5.59 2.794 3.261l3.727-3.261c2.329 5.59 6.055 3.261 7.918 2.329 20.495-13.042 40.99-28.413 60.553-43.784l-0.466 6.055 2.329-7.453c2.329 2.329 4.192 0.466 5.124-0.931 2.795-4.658 6.521-9.316 12.577-13.508-7.453 20.029-16.303 35.866-27.482 48.908l-4.658 5.59c0 3.261-0.932 7.453-4.658 7.918-1.863 0.466-5.59-0.932-8.384 1.863-1.397 1.863 3.261 5.59-0.466 2.795-3.261-2.329-6.521 0-10.248 0.932-2.795 0.932 1.863 3.726 2.795 5.589 0.932 1.863 1.863 3.726 1.398 6.056l-5.124-5.59c-6.055 3.261-9.782 9.316-14.906 13.974-2.329 1.863-1.397 5.124-1.397 7.918-3.261 0-6.987-0.932-8.85 0.932-1.397 1.863-0.932 4.658-0.932 7.453-4.658-0.466-5.124-7.453-9.315-6.056-4.192 0.932-8.85 1.397-12.577 3.727 2.795 5.59-4.658 2.329-3.726 3.26-6.987-4.192-13.042-7.453-20.495-4.658-15.837-5.124-35.4-2.795-49.84-0.931 0-2.329 0.466-4.658-0.466-5.124-0.932 2.329-3.726 1.397-3.26 1.397-8.85-6.055-17.7-9.782-27.016-14.905-8.384 0.932-16.303-3.261-18.632-5.59-6.521-6.055-13.974-2.795-20.029-4.192-13.042-3.261-17.7-16.769-19.098-26.084-0.932-4.658-4.658-6.521-6.055-6.056-6.055-19.563-15.371-37.263-22.824-55.429-1.863-4.658-1.397-9.316-1.397-14.44 2.329 0.932 4.658 0.466 4.192-2.794-2.329-15.371-7.918-27.016-13.974-38.195 3.261-15.837 3.726-34.469 11.179-48.443 6.521-12.576 18.632-19.098 27.016-29.811 2.795-3.726 2.795-8.85 5.59-12.11 9.316-9.316 18.632-19.098 28.879-27.482 4.658-3.726 10.247 0 17.234-1.397 2.329-8.384 11.645-15.837 20.495-13.508 3.726 0.932 11.179-8.85 13.508-9.782 3.726-1.397 1.863 3.726 1.863 6.987 8.85-6.987 20.961-10.713 32.14-14.906" fill="#332885" fill-rule="nonzero" stroke="none" stroke-width="1" stroke-linecap="butt" stroke-linejoin="miter" stroke-miterlimit="10" stroke-dasharray="" stroke-dashoffset="0" font-family="none" font-weight="none" font-size="none" text-anchor="none" style="mix-blend-mode: normal" data-fill-palette-color="tertiary"></path></g><g transform="matrix(1,0,0,1,64,137.43864598025388)"><svg viewBox="0 0 192 85.12270803949225" height="85.12270803949225" width="192"><g><svg viewBox="0 0 192 85.12270803949225" height="85.12270803949225" width="192"><g><svg viewBox="0 0 192 85.12270803949225" height="85.12270803949225" width="192"><g><svg viewBox="0 0 192 85.12270803949225" height="85.12270803949225" width="192"><g id="textblocktransform"><svg viewBox="0 0 192 85.12270803949225" height="85.12270803949225" width="192" id="textblock"><g><svg viewBox="0 0 192 85.12270803949225" height="85.12270803949225" width="192"><g transform="matrix(1,0,0,1,0,0)"><svg width="192" viewBox="1 -37.35 106.34 47.150000000000006" height="85.12270803949225" data-palette-color="#332885"><path d="M11.65 0.25L6.6-0.05 2.75 0.25Q1 0.25 1-0.55L1-0.55Q1-1.15 2-1.2L2-1.2Q3.05-1.3 3.7-2.25 4.35-3.2 4.45-4.05 4.55-4.9 5.5-11.95L5.5-11.95Q7.9-30.45 7.9-30.95L7.9-30.95Q7.9-33.3 4.9-33.65L4.9-33.65Q3.65-33.8 3.6-33.85L3.6-33.85Q3.2-34 3.2-34.45L3.2-34.45Q3.2-35.2 4.55-35.2L4.55-35.2Q5.1-35.2 6.6-35 8.1-34.8 9.7-34.8L9.7-34.8Q9.7-34.8 14.4-35.1L14.4-35.1Q15.3-35.1 15.3-34.4L15.3-34.4Q15.3-34.05 14.83-33.93 14.35-33.8 13.68-33.63 13-33.45 12.7-33.1L12.7-33.1Q11.7-31.95 11.18-26.78 10.65-21.6 9.9-16.3 9.15-11 8.75-8.33 8.35-5.65 8.35-4.75 8.35-3.85 8.5-3.1 8.65-2.35 9.03-2 9.4-1.65 9.63-1.5 9.85-1.35 10.45-1.25 11.05-1.15 11.23-1.1 11.4-1.05 11.65-1 11.9-0.95 12.08-0.93 12.25-0.9 12.4-0.85L12.4-0.85Q12.7-0.75 12.7-0.43 12.7-0.1 12.55 0.05L12.55 0.05Q12.35 0.25 11.65 0.25L11.65 0.25ZM26.2 0L20.9-0.1 17 0.15Q15.3 0.15 15.3-0.55L15.3-0.55Q15.3-1.2 16.15-1.3L16.15-1.3Q17.15-1.35 18.05-2.25L18.05-2.25Q18.85-3.05 19.3-6.55L19.3-6.55Q19.35-7.2 19.5-8.35 19.65-9.5 19.75-10.5 19.85-11.5 20.05-13.18 20.25-14.85 20.5-16.98 20.75-19.1 21.2-22.95L21.2-22.95Q22.2-30.85 22.2-30.95L22.2-30.95Q22.2-33.3 19.2-33.65L19.2-33.65Q17.95-33.8 17.9-33.85L17.9-33.85Q17.5-34 17.5-34.45L17.5-34.45Q17.5-35.2 18.85-35.2L18.85-35.2Q19.4-35.2 20.9-35.02 22.4-34.85 23.8-34.85 25.2-34.85 26.77-35.02 28.35-35.2 28.7-35.2L28.7-35.2Q29.6-35.2 29.6-34.45L29.6-34.45Q29.6-34.1 29.12-33.98 28.65-33.85 27.97-33.68 27.3-33.5 26.87-33 26.45-32.5 26.17-31.3 25.9-30.1 25.52-27.13 25.15-24.15 24.85-22.4 24.55-20.65 24.55-20.1 24.55-19.55 24.67-19.45 24.8-19.35 25.15-19.35L25.15-19.35 41.8-19.2 42.8-19.2Q43.65-19.2 43.9-19.55 44.15-19.9 44.25-20.78 44.35-21.65 44.6-23.95L44.6-23.95Q45.25-29.95 45.25-30.25L45.25-30.25Q45.25-32.65 43.25-33.5L43.25-33.5Q43-33.6 42.3-33.7L42.3-33.7Q40.55-33.85 40.55-34.48 40.55-35.1 41.9-35.1L41.9-35.1 47.25-34.95 51.55-35.15Q52.65-35.15 52.65-34.4L52.65-34.4Q52.65-34 51.65-33.77 50.65-33.55 50.3-33.1L50.3-33.1Q49.25-31.85 48.72-26.75 48.2-21.65 47.5-16.32 46.8-11 46.45-8.38 46.1-5.75 46.1-5.1 46.1-4.45 46.15-3.95 46.2-3.45 46.27-3.1 46.35-2.75 46.52-2.48 46.7-2.2 46.8-2 46.9-1.8 47.17-1.68 47.45-1.55 47.55-1.5L47.55-1.5Q47.85-1.25 48.4-1.25L48.4-1.25 49.2-1.2Q50.85-1.1 50.85-0.3L50.85-0.3Q50.85 0.3 49.95 0.3L49.95 0.3 44.85-0.15Q43.4-0.15 42.05 0.05 40.7 0.25 40.35 0.25L40.35 0.25Q38.75 0.25 38.75-0.4 38.75-1.05 39.5-1.13 40.25-1.2 40.7-1.5 41.15-1.8 41.4-2.05 41.65-2.3 41.8-2.95L41.8-2.95Q42.1-3.95 42.2-4.8L42.2-4.8 42.3-5.6Q43.7-15.55 43.7-16.25 43.7-16.95 43.42-17.07 43.15-17.2 42-17.2L42-17.2 37-17.15 25.25-17.15Q24.4-17.15 24.27-17 24.15-16.85 24.05-15.9L24.05-15.9 23.7-13.3Q22.65-6.05 22.65-5.08 22.65-4.1 22.8-3.5 22.95-2.9 23.1-2.55 23.25-2.2 23.65-1.93 24.05-1.65 24.2-1.6L24.2-1.6Q25.25-1.25 25.65-1.2 26.05-1.15 26.15-1.1 26.25-1.05 26.42-1.03 26.6-1 26.67-0.95 26.75-0.9 26.85-0.8L26.85-0.8Q27-0.7 27-0.45L27-0.45Q27 0 26.2 0L26.2 0ZM61.15 0.6Q56.7 0.6 54.97-1.5 53.25-3.6 53.25-7.05 53.25-10.5 54.75-13.6 56.25-16.7 58.97-19.25 61.7-21.8 65.84-21.8L65.84-21.8Q67.65-21.8 68.92-20.75 70.2-19.7 70.2-18.28 70.2-16.85 69.59-15.73 69-14.6 68.09-13.85L68.09-13.85Q66.5-12.5 65.34-12.05L65.34-12.05Q62.45-10.75 57.5-10.7L57.5-10.7Q56.65-10.7 56.65-8.22 56.65-5.75 58.45-4.08 60.25-2.4 63.85-2.4L63.85-2.4Q65.95-2.4 68.34-4L68.34-4Q69.09-4.55 69.25-4.55L69.25-4.55Q69.84-4.55 69.84-4.05L69.84-4.05Q69.84-3 66.97-1.2 64.09 0.6 61.15 0.6L61.15 0.6ZM60-17.95Q59-16.9 58.17-15.05 57.35-13.2 57.35-12.38 57.35-11.55 57.8-11.55L57.8-11.55Q61.35-11.55 64.05-13.55 66.75-15.55 66.75-17.95L66.75-17.95Q66.75-19.2 65.87-19.75 65-20.3 64.09-20.3L64.09-20.3Q62.25-20.3 60-17.95L60-17.95ZM76.74-35.25L76.74-35.25 75.29-35.2Q73.84-35.2 73.84-35.88 73.84-36.55 74.59-36.6L74.59-36.6Q76.59-36.75 78.34-37.05 80.09-37.35 80.64-37.35L80.64-37.35Q81.69-37.35 81.69-36.55L81.69-36.55Q81.69-36.15 81.47-35.4 81.24-34.65 80.82-32.33 80.39-30 80.09-27.83 79.79-25.65 79.52-22.78 79.24-19.9 78.19-12.75 77.14-5.6 77.14-4.63 77.14-3.65 77.29-3.3 77.44-2.95 78.17-2.95 78.89-2.95 79.64-3.5 80.39-4.05 80.79-4.7L80.79-4.7Q81.74-6.5 82.49-6.5L82.49-6.5Q83.09-6.5 83.09-5.75 83.09-5 80.59-2.1L80.59-2.1Q79.69-1.05 78.37-0.33 77.04 0.4 76.37 0.4 75.69 0.4 75.39 0.3 75.09 0.2 74.69-0.2L74.69-0.2Q73.79-0.95 73.79-4.3L73.79-4.3Q73.79-6.45 74.49-10.1 75.19-13.75 75.29-14.5 75.39-15.25 75.77-18.65 76.14-22.05 77.07-27.98 77.99-33.9 77.99-34.25L77.99-34.25Q77.99-35.25 76.74-35.25ZM93.69 9.8L88.69 9.75 85.99 9.8 85.54 9.8Q84.69 9.8 84.69 9.13 84.69 8.45 85.72 8 86.74 7.55 86.87 7.2 86.99 6.85 88.44-4.5 89.89-15.85 90.44-18.5L90.44-18.5 90.44-18.6Q90.44-18.85 90.19-18.85 89.94-18.85 88.94-18.4 87.94-17.95 87.64-17.95L87.64-17.95Q86.99-17.95 86.99-18.55L86.99-18.55 86.99-18.75Q86.99-19.2 87.34-19.4L87.34-19.4Q87.94-19.65 88.52-19.85 89.09-20.05 89.42-20.18 89.74-20.3 90.02-20.35 90.29-20.4 90.44-20.55 90.59-20.7 90.72-20.7 90.84-20.7 90.89-20.95 90.94-21.2 90.97-21.28 90.99-21.35 91.07-21.8 91.14-22.25 91.24-22.78 91.34-23.3 91.52-24.4 91.69-25.5 91.77-25.88 91.84-26.25 92.04-26.8L92.04-26.8Q92.29-27.55 93.09-27.98 93.89-28.4 94.62-28.4 95.34-28.4 95.34-27.6 95.34-26.8 94.67-24.55 93.99-22.3 93.99-21.6L93.99-21.6 93.99-21.4Q93.99-21.15 94.17-21.15 94.34-21.15 94.84-21.2L94.84-21.2Q96.09-21.4 98.49-21.4L98.49-21.4Q107.34-21.4 107.34-14.7L107.34-14.7Q107.34-10.55 105.39-7.25L105.39-7.25Q104.99-6.45 104.74-6.1 104.49-5.75 104.24-5.33 103.99-4.9 103.82-4.67 103.64-4.45 103.32-4.08 102.99-3.7 102.69-3.4L102.69-3.4Q98.94 0 94.44 0L94.44 0 91.74-0.2Q91.29-0.2 91.14 0.05L91.14 0.05Q90.99 0.4 90.84 1.88 90.69 3.35 90.54 4.2L90.54 4.2Q90.24 6 90.24 6.45L90.24 6.45Q90.24 7.55 91.29 7.98 92.34 8.4 93.37 8.55 94.39 8.7 94.39 9.15L94.39 9.15Q94.39 9.8 93.69 9.8L93.69 9.8ZM95.29-20.15L95.29-20.15 94.09-20Q93.69-20 93.24-16.15L93.24-16.15 92.59-10.6Q91.59-3.1 91.59-2.73 91.59-2.35 91.79-2.1 91.99-1.85 92.69-1.6 93.39-1.35 94.44-1.35L94.44-1.35Q97.99-1.35 100.84-5.28 103.69-9.2 103.69-12.85L103.69-12.85Q103.69-14.8 102.97-16.23 102.24-17.65 101.27-18.38 100.29-19.1 98.99-19.5L98.99-19.5Q97.09-20.15 95.29-20.15Z" opacity="1" transform="matrix(1,0,0,1,0,0)" fill="#332885" class="wordmark-text-0" data-fill-palette-color="primary" id="text-0"></path></svg></g></svg></g></svg></g></svg></g><g></g></svg></g></svg></g></svg></g></svg></g><defs></defs></svg><rect width="320" height="360" fill="none" stroke="none" visibility="hidden"></rect></g></svg></g></svg>